<svg width="24" height="22" viewBox="0 0 24 22" fill="none" xmlns="http://www.w3.org/2000/svg">
<mask id="path-1-inside-1_211_2339" fill="white">
<path d="M15.0112 10.7646C14.8436 10.7646 14.688 10.7185 14.5497 10.6444V10.6463C14.5497 10.91 14.4472 11.1577 14.2613 11.3431C14.0753 11.5291 13.8279 11.6316 13.5645 11.6316C13.3944 11.6316 13.2368 11.5844 13.0971 11.5083C13.083 11.7495 12.9865 11.975 12.8145 12.1472C12.6285 12.3332 12.3811 12.4357 12.1175 12.4357C11.5939 12.4357 11.1686 12.024 11.138 11.5081C10.976 11.5957 10.7928 11.6416 10.6039 11.6295C10.0887 11.5957 9.68534 11.1506 9.68534 10.616V6.18435L9.18071 7.05859C8.98851 7.39297 8.62873 7.60058 8.24136 7.60058C8.05261 7.60058 7.86615 7.55105 7.70101 7.45643C7.49537 7.33721 7.34827 7.14583 7.28709 6.91687C7.2256 6.68778 7.25741 6.44818 7.3763 6.24285C7.37647 6.24285 9.02738 3.38395 9.12809 3.20834C9.14006 3.18194 9.17418 3.10536 9.2032 3.04009C9.23092 2.97777 9.2547 2.91381 9.27749 2.84953C9.77535 1.44397 11.0081 0.570866 12.4949 0.570866C14.4255 0.570866 15.9963 2.27408 15.9963 4.36764L15.9964 9.77913C15.9964 10.0425 15.8941 10.29 15.7083 10.4761C15.5223 10.6621 15.2749 10.7646 15.0112 10.7646L15.0112 10.7646ZM12.4949 1.09441C11.2174 1.09441 10.1991 1.816 9.77096 3.02462C9.74358 3.10137 9.71504 3.17811 9.68175 3.2529C9.58516 3.46953 9.58516 3.46953 9.55794 3.50069L9.55433 3.49757C9.41953 3.75192 9.01906 4.44544 7.82962 6.50487C7.78075 6.58933 7.76779 6.6874 7.79272 6.7812C7.81798 6.875 7.87849 6.95405 7.96229 7.00242C8.22238 7.15182 8.57859 7.05539 8.72683 6.79711L9.72046 5.07681C9.77983 4.97431 9.89987 4.92397 10.015 4.95513C10.1295 4.98579 10.209 5.0896 10.209 5.208V10.6161C10.209 10.8713 10.4015 11.0915 10.6382 11.1071C10.7746 11.1143 10.9019 11.0686 10.9975 10.9731C11.0844 10.8862 11.1323 10.7704 11.1323 10.6466V7.10963C11.1323 6.96499 11.2495 6.84774 11.3942 6.84774C11.5388 6.84774 11.6561 6.96483 11.6561 7.10963L11.6559 11.4506C11.6559 11.7051 11.863 11.9122 12.1175 11.9122C12.2412 11.9122 12.3573 11.8643 12.4444 11.7774C12.5313 11.6903 12.5792 11.5742 12.5792 11.4506V7.10963C12.5792 6.96499 12.6963 6.84773 12.8411 6.84773C12.9857 6.84773 13.103 6.96483 13.103 7.10963L13.1028 10.6059V10.6466C13.1028 10.901 13.3099 11.1081 13.5646 11.1081C13.6881 11.1081 13.8039 11.06 13.8915 10.9728C13.9784 10.886 14.0263 10.7703 14.0263 10.6464V7.10945C14.0263 6.96481 14.1434 6.84755 14.2882 6.84755C14.4328 6.84755 14.5501 6.96464 14.5501 7.10945L14.5497 9.77925C14.5497 10.0339 14.7568 10.2411 15.0112 10.2411C15.135 10.2411 15.2508 10.193 15.3377 10.1063C15.4249 10.019 15.4727 9.9029 15.4727 9.77925L15.4728 4.36777C15.4728 2.56304 14.137 1.09446 12.4949 1.09446L12.4949 1.09441Z"/>
</mask>
<path d="M15.0112 10.7646C14.8436 10.7646 14.688 10.7185 14.5497 10.6444V10.6463C14.5497 10.91 14.4472 11.1577 14.2613 11.3431C14.0753 11.5291 13.8279 11.6316 13.5645 11.6316C13.3944 11.6316 13.2368 11.5844 13.0971 11.5083C13.083 11.7495 12.9865 11.975 12.8145 12.1472C12.6285 12.3332 12.3811 12.4357 12.1175 12.4357C11.5939 12.4357 11.1686 12.024 11.138 11.5081C10.976 11.5957 10.7928 11.6416 10.6039 11.6295C10.0887 11.5957 9.68534 11.1506 9.68534 10.616V6.18435L9.18071 7.05859C8.98851 7.39297 8.62873 7.60058 8.24136 7.60058C8.05261 7.60058 7.86615 7.55105 7.70101 7.45643C7.49537 7.33721 7.34827 7.14583 7.28709 6.91687C7.2256 6.68778 7.25741 6.44818 7.3763 6.24285C7.37647 6.24285 9.02738 3.38395 9.12809 3.20834C9.14006 3.18194 9.17418 3.10536 9.2032 3.04009C9.23092 2.97777 9.2547 2.91381 9.27749 2.84953C9.77535 1.44397 11.0081 0.570866 12.4949 0.570866C14.4255 0.570866 15.9963 2.27408 15.9963 4.36764L15.9964 9.77913C15.9964 10.0425 15.8941 10.29 15.7083 10.4761C15.5223 10.6621 15.2749 10.7646 15.0112 10.7646L15.0112 10.7646ZM12.4949 1.09441C11.2174 1.09441 10.1991 1.816 9.77096 3.02462C9.74358 3.10137 9.71504 3.17811 9.68175 3.2529C9.58516 3.46953 9.58516 3.46953 9.55794 3.50069L9.55433 3.49757C9.41953 3.75192 9.01906 4.44544 7.82962 6.50487C7.78075 6.58933 7.76779 6.6874 7.79272 6.7812C7.81798 6.875 7.87849 6.95405 7.96229 7.00242C8.22238 7.15182 8.57859 7.05539 8.72683 6.79711L9.72046 5.07681C9.77983 4.97431 9.89987 4.92397 10.015 4.95513C10.1295 4.98579 10.209 5.0896 10.209 5.208V10.6161C10.209 10.8713 10.4015 11.0915 10.6382 11.1071C10.7746 11.1143 10.9019 11.0686 10.9975 10.9731C11.0844 10.8862 11.1323 10.7704 11.1323 10.6466V7.10963C11.1323 6.96499 11.2495 6.84774 11.3942 6.84774C11.5388 6.84774 11.6561 6.96483 11.6561 7.10963L11.6559 11.4506C11.6559 11.7051 11.863 11.9122 12.1175 11.9122C12.2412 11.9122 12.3573 11.8643 12.4444 11.7774C12.5313 11.6903 12.5792 11.5742 12.5792 11.4506V7.10963C12.5792 6.96499 12.6963 6.84773 12.8411 6.84773C12.9857 6.84773 13.103 6.96483 13.103 7.10963L13.1028 10.6059V10.6466C13.1028 10.901 13.3099 11.1081 13.5646 11.1081C13.6881 11.1081 13.8039 11.06 13.8915 10.9728C13.9784 10.886 14.0263 10.7703 14.0263 10.6464V7.10945C14.0263 6.96481 14.1434 6.84755 14.2882 6.84755C14.4328 6.84755 14.5501 6.96464 14.5501 7.10945L14.5497 9.77925C14.5497 10.0339 14.7568 10.2411 15.0112 10.2411C15.135 10.2411 15.2508 10.193 15.3377 10.1063C15.4249 10.019 15.4727 9.9029 15.4727 9.77925L15.4728 4.36777C15.4728 2.56304 14.137 1.09446 12.4949 1.09446L12.4949 1.09441Z" fill="#4CAF4F"/>
<path d="M15.0112 10.7646V9.83647H18.2902L15.4976 11.555L15.0112 10.7646ZM14.5497 10.6444H13.6216V9.09362L14.9883 9.82642L14.5497 10.6444ZM14.2613 11.3431L13.605 10.6869L13.6059 10.686L14.2613 11.3431ZM13.0971 11.5083L12.1706 11.4541L12.256 9.99345L13.5409 10.6932L13.0971 11.5083ZM12.8145 12.1472L13.4711 12.8031L13.4708 12.8035L12.8145 12.1472ZM11.138 11.5081L10.6967 10.6916L11.9781 9.9991L12.0645 11.4531L11.138 11.5081ZM10.6039 11.6295L10.5444 12.5557L10.5431 12.5556L10.6039 11.6295ZM9.68534 6.18435L8.88154 5.72039L10.6134 2.71998V6.18435H9.68534ZM9.18071 7.05859L8.37607 6.59609L8.37691 6.59462L9.18071 7.05859ZM7.70101 7.45643L7.23959 8.2617L7.23553 8.25935L7.70101 7.45643ZM7.28709 6.91687L8.18346 6.67627L8.18373 6.67731L7.28709 6.91687ZM7.3763 6.24285L6.57314 5.77779L6.84125 5.31476H7.3763V6.24285ZM9.12809 3.20834L9.97335 3.5916L9.95513 3.63179L9.93318 3.67007L9.12809 3.20834ZM9.2032 3.04009L8.35519 2.66296L8.35519 2.66295L9.2032 3.04009ZM9.27749 2.84953L10.1523 3.1594L10.1522 3.15966L9.27749 2.84953ZM15.9963 4.36764L15.0682 4.36767V4.36764H15.9963ZM15.9964 9.77913L16.9245 9.7791V9.77913H15.9964ZM15.7083 10.4761L16.3652 11.1318L16.3645 11.1324L15.7083 10.4761ZM15.0112 10.7646V11.6927H11.7322L14.5248 9.97416L15.0112 10.7646ZM12.4949 1.09441V0.166316H13.7253L13.3873 1.34938L12.4949 1.09441ZM9.77096 3.02462L10.6458 3.33454L10.6451 3.33654L9.77096 3.02462ZM9.68175 3.2529L10.5296 3.63035L10.5294 3.63084L9.68175 3.2529ZM9.55794 3.50069L10.2568 4.11134L9.64969 4.80623L8.95132 4.20309L9.55794 3.50069ZM9.55433 3.49757L8.73428 3.06297L9.2796 2.03401L10.1609 2.79517L9.55433 3.49757ZM7.82962 6.50487L8.6333 6.96904L8.63292 6.96971L7.82962 6.50487ZM7.79272 6.7812L6.89654 7.02248L6.89577 7.01958L7.79272 6.7812ZM7.96229 7.00242L7.50003 7.8072L7.49829 7.8062L7.96229 7.00242ZM8.72683 6.79711L7.92188 6.33512L7.92316 6.33291L8.72683 6.79711ZM9.72046 5.07681L8.91679 4.61261L8.91736 4.61164L9.72046 5.07681ZM10.015 4.95513L9.77482 5.85161L9.77252 5.85099L10.015 4.95513ZM10.6382 11.1071L10.5892 12.034L10.5772 12.0332L10.6382 11.1071ZM10.9975 10.9731L11.6537 11.6294L11.6532 11.63L10.9975 10.9731ZM11.6561 7.10963H12.5842V7.10967L11.6561 7.10963ZM11.6559 11.4506H10.7278V11.4505L11.6559 11.4506ZM12.4444 11.7774L13.1013 12.4331L13.1 12.4343L12.4444 11.7774ZM13.103 7.10963H14.0311V7.10967L13.103 7.10963ZM13.1028 10.6059H12.1747V10.6059L13.1028 10.6059ZM13.8915 10.9728L14.5471 11.6297L14.5465 11.6303L13.8915 10.9728ZM14.5501 7.10945H15.4781V7.10956L14.5501 7.10945ZM14.5497 9.77925H13.6216V9.77914L14.5497 9.77925ZM15.3377 10.1063L15.994 10.7625L15.9933 10.7631L15.3377 10.1063ZM15.4727 9.77925H14.5446V9.77923L15.4727 9.77925ZM15.4728 4.36777H16.4009V4.36779L15.4728 4.36777ZM12.4949 1.09446V2.02256H11.2645L11.6025 0.839496L12.4949 1.09446ZM15.0112 11.6927C14.6695 11.6927 14.3644 11.598 14.1112 11.4623L14.9883 9.82642C15.0003 9.83285 15.0079 9.83531 15.0109 9.83613C15.0135 9.83683 15.0132 9.83647 15.0112 9.83647V11.6927ZM15.4778 10.6444V10.6463H13.6216V10.6444H15.4778ZM15.4778 10.6463C15.4778 11.1554 15.2781 11.6398 14.9167 12.0003L13.6059 10.686C13.6125 10.6794 13.6158 10.6737 13.6177 10.6691C13.6196 10.6644 13.6216 10.6573 13.6216 10.6463H15.4778ZM14.9175 11.9994C14.5574 12.3596 14.0738 12.5597 13.5645 12.5597V10.7035C13.5751 10.7035 13.5821 10.7016 13.5869 10.6996C13.5916 10.6976 13.5978 10.6941 13.605 10.6869L14.9175 11.9994ZM13.5645 12.5597C13.2183 12.5597 12.9093 12.4628 12.6532 12.3234L13.5409 10.6932C13.553 10.6998 13.5607 10.7023 13.5637 10.7031C13.5663 10.7038 13.5661 10.7035 13.5645 10.7035V12.5597ZM14.0236 11.5624C13.9969 12.0193 13.8116 12.4623 13.4711 12.8031L12.1579 11.4913C12.1614 11.4878 12.1633 11.4848 12.165 11.481C12.1669 11.4768 12.1697 11.4683 12.1706 11.4541L14.0236 11.5624ZM13.4708 12.8035C13.1105 13.1637 12.6269 13.3638 12.1175 13.3638V11.5076C12.1283 11.5076 12.1354 11.5056 12.1401 11.5037C12.1449 11.5017 12.151 11.4982 12.1583 11.4909L13.4708 12.8035ZM12.1175 13.3638C11.0929 13.3638 10.2707 12.5596 10.2115 11.5632L12.0645 11.4531C12.0654 11.4689 12.0719 11.4827 12.0833 11.4936C12.0889 11.4989 12.0945 11.5023 12.0994 11.5044C12.1037 11.5061 12.1092 11.5076 12.1175 11.5076V13.3638ZM11.5793 12.3246C11.2795 12.4866 10.9241 12.58 10.5444 12.5557L10.6634 10.7033C10.6634 10.7033 10.6654 10.7035 10.6703 10.7023C10.6755 10.7011 10.6846 10.6982 10.6967 10.6916L11.5793 12.3246ZM10.5431 12.5556C9.51264 12.488 8.75724 11.6116 8.75724 10.616H10.6134C10.6134 10.6474 10.6248 10.6715 10.6391 10.6873C10.653 10.7026 10.6625 10.7032 10.6646 10.7034L10.5431 12.5556ZM8.75724 10.616V6.18435H10.6134V10.616H8.75724ZM10.4891 6.64832L9.98451 7.52255L8.37691 6.59462L8.88154 5.72039L10.4891 6.64832ZM9.98535 7.52109C9.62673 8.14501 8.95919 8.52867 8.24136 8.52867V6.67248C8.29827 6.67248 8.3503 6.64093 8.37607 6.59609L9.98535 7.52109ZM8.24136 8.52867C7.89039 8.52867 7.54491 8.43664 7.23959 8.26169L8.16243 6.65116C8.18739 6.66546 8.21482 6.67248 8.24136 6.67248V8.52867ZM7.23553 8.25935C6.81884 8.01778 6.51555 7.62465 6.39045 7.15644L8.18373 6.67731C8.18289 6.67414 8.18057 6.66854 8.1761 6.66271C8.17167 6.65693 8.16756 6.65413 8.1665 6.65351L7.23553 8.25935ZM6.39073 7.15748C6.26514 6.68961 6.33089 6.19616 6.57314 5.77779L8.17947 6.70791C8.18079 6.70563 8.18311 6.70033 8.18411 6.69283C8.1851 6.68531 8.18427 6.67931 8.18345 6.67627L6.39073 7.15748ZM7.3763 5.31476C6.92104 5.43409 6.58028 5.76568 6.57773 5.76995C6.57688 5.77138 6.57562 5.77353 6.57522 5.77422C6.57499 5.77461 6.57459 5.77529 6.57446 5.77552C6.57438 5.77566 6.57421 5.77596 6.57416 5.77603C6.57403 5.77625 6.57407 5.77618 6.57442 5.77558C6.57506 5.77449 6.57611 5.77266 6.57765 5.77C6.5807 5.76473 6.58528 5.7568 6.59133 5.74633C6.60342 5.72542 6.62117 5.69468 6.64384 5.65544C6.68918 5.57696 6.75405 5.46463 6.83223 5.32926C6.98858 5.05853 7.19809 4.6957 7.41075 4.32739C7.83677 3.58953 8.27353 2.83288 8.323 2.74662L9.93318 3.67007C9.88193 3.75942 9.44289 4.52002 9.01823 5.25551C8.80555 5.62387 8.59601 5.98675 8.43962 6.25755C8.36143 6.39294 8.29652 6.50533 8.25114 6.58389C8.22846 6.62316 8.21063 6.65401 8.19846 6.67507C8.19239 6.68558 8.18768 6.69373 8.18446 6.69929C8.18287 6.70204 8.18156 6.70432 8.18059 6.70598C8.18015 6.70675 8.17959 6.70772 8.17905 6.70863C8.17886 6.70897 8.17826 6.71 8.17755 6.71122C8.17709 6.71199 8.17579 6.71421 8.17492 6.71568C8.17235 6.72 7.83157 7.05161 7.3763 7.17094V5.31476ZM8.28283 2.82508C8.29304 2.80255 8.32541 2.72991 8.35519 2.66296L10.0512 3.41721C10.0229 3.48081 9.98708 3.56133 9.97335 3.5916L8.28283 2.82508ZM8.35519 2.66295C8.36809 2.63395 8.38236 2.59689 8.40275 2.5394L10.1522 3.15966C10.127 3.23074 10.0937 3.32159 10.0512 3.41723L8.35519 2.66295ZM8.40266 2.53965C9.03125 0.765037 10.6134 -0.357227 12.4949 -0.357227V1.49896C11.4028 1.49896 10.5195 2.1229 10.1523 3.1594L8.40266 2.53965ZM12.4949 -0.357227C15.0075 -0.357227 16.9244 1.83371 16.9244 4.36764H15.0682C15.0682 2.71445 13.8436 1.49896 12.4949 1.49896V-0.357227ZM16.9244 4.36761L16.9245 9.7791L15.0683 9.77916L15.0682 4.36767L16.9244 4.36761ZM16.9245 9.77913C16.9245 10.2881 16.7248 10.7714 16.3652 11.1318L15.0514 9.82047C15.0588 9.81312 15.0623 9.80687 15.0643 9.80199C15.0664 9.79711 15.0683 9.78995 15.0683 9.77913H16.9245ZM16.3645 11.1324C16.0043 11.4927 15.5207 11.6927 15.0112 11.6927V9.83649C15.0221 9.83649 15.0292 9.83451 15.0339 9.83255C15.0387 9.83059 15.0448 9.8271 15.052 9.81986L16.3645 11.1324ZM14.5248 9.97416L14.5248 9.97414L15.4976 11.555L15.4976 11.555L14.5248 9.97416ZM12.4949 2.0225C11.6125 2.0225 10.9434 2.49454 10.6458 3.33454L8.89615 2.7147C9.45491 1.13745 10.8223 0.166316 12.4949 0.166316V2.0225ZM10.6451 3.33654C10.6158 3.41863 10.5777 3.52232 10.5296 3.63035L8.83388 2.87544C8.85237 2.83391 8.87138 2.7841 8.89686 2.7127L10.6451 3.33654ZM10.5294 3.63084C10.4869 3.72616 10.4513 3.80666 10.424 3.86119C10.4071 3.89503 10.3798 3.94719 10.3401 4.00496C10.2998 4.06349 10.2601 4.10764 10.2568 4.11134L8.85904 2.89003C8.86122 2.88754 8.8605 2.88835 8.8594 2.88963C8.85799 2.89127 8.85438 2.89548 8.84965 2.90125C8.84475 2.90722 8.83857 2.91494 8.83162 2.92412C8.82459 2.93338 8.81745 2.94323 8.81031 2.95362C8.79577 2.97478 8.78457 2.99331 8.77661 3.00733C8.76918 3.02041 8.76463 3.02946 8.76361 3.0315C8.76256 3.03361 8.76322 3.03237 8.76637 3.02562C8.76943 3.01908 8.77375 3.00965 8.77996 2.99594C8.78612 2.98234 8.79349 2.96592 8.80256 2.94563C8.81162 2.92537 8.82197 2.90216 8.8341 2.87495L10.5294 3.63084ZM8.95132 4.20309L8.94771 4.19997L10.1609 2.79517L10.1646 2.79828L8.95132 4.20309ZM10.3744 3.93217C10.2291 4.20625 9.81444 4.92398 8.6333 6.96904L7.02594 6.0407C8.22368 3.96691 8.60994 3.2976 8.73428 3.06297L10.3744 3.93217ZM8.63292 6.96971C8.70718 6.84138 8.72788 6.68654 8.68968 6.54282L6.89577 7.01958C6.80771 6.68826 6.85432 6.33728 7.02633 6.04003L8.63292 6.96971ZM8.6889 6.53992C8.65071 6.39807 8.55685 6.27401 8.42629 6.19865L7.49829 7.8062C7.20014 7.63408 6.98524 7.35194 6.89654 7.02248L8.6889 6.53992ZM8.42456 6.19765C8.31892 6.13696 8.21617 6.13737 8.14522 6.15647C8.07454 6.1755 7.98392 6.22704 7.92189 6.33513L9.53177 7.25909C9.12729 7.96384 8.20289 8.21093 7.50003 7.8072L8.42456 6.19765ZM7.92316 6.33291L8.91679 4.61261L10.5241 5.541L9.5305 7.2613L7.92316 6.33291ZM8.91736 4.61164C9.18543 4.14882 9.73259 3.91721 10.2575 4.05927L9.77252 5.85099C10.0671 5.93073 10.3742 5.7998 10.5236 5.54198L8.91736 4.61164ZM10.2552 4.05865C10.7758 4.19814 11.1371 4.66998 11.1371 5.208H9.2809C9.2809 5.50922 9.48308 5.77345 9.77482 5.8516L10.2552 4.05865ZM11.1371 5.208V10.6161H9.2809V5.208H11.1371ZM11.1371 10.6161C11.1371 10.5104 11.0979 10.4142 11.0336 10.3407C10.9694 10.2672 10.8561 10.1914 10.6991 10.181L10.5772 12.0332C9.79595 11.9818 9.2809 11.3012 9.2809 10.6161H11.1371ZM10.6872 10.1803C10.5775 10.1745 10.4436 10.2147 10.3418 10.3163L11.6532 11.63C11.3602 11.9225 10.9717 12.0541 10.5892 12.0339L10.6872 10.1803ZM10.3412 10.3169C10.2531 10.4049 10.2042 10.5256 10.2042 10.6466H12.0604C12.0604 11.0152 11.9157 11.3675 11.6537 11.6294L10.3412 10.3169ZM10.2042 10.6466V7.10963H12.0604V10.6466H10.2042ZM10.2042 7.10963C10.2042 6.45242 10.737 5.91964 11.3942 5.91964V7.77583C11.7621 7.77583 12.0604 7.47756 12.0604 7.10963H10.2042ZM11.3942 5.91964C12.051 5.91964 12.5842 6.45189 12.5842 7.10963H10.728C10.728 7.47777 11.0266 7.77583 11.3942 7.77583V5.91964ZM12.5842 7.10967L12.584 11.4506L10.7278 11.4505L10.728 7.1096L12.5842 7.10967ZM12.584 11.4506C12.584 11.1925 12.3756 10.9841 12.1175 10.9841V12.8403C11.3505 12.8403 10.7278 12.2177 10.7278 11.4506H12.584ZM12.1175 10.9841C11.9968 10.9841 11.8767 11.0328 11.7888 11.1205L13.1 12.4343C12.8379 12.6959 12.4856 12.8403 12.1175 12.8403V10.9841ZM11.7875 11.1218C11.6998 11.2097 11.6511 11.3298 11.6511 11.4506H13.5073C13.5073 11.8187 13.3628 12.171 13.1013 12.4331L11.7875 11.1218ZM11.6511 11.4506V7.10963H13.5073V11.4506H11.6511ZM11.6511 7.10963C11.6511 6.4528 12.1833 5.91964 12.8411 5.91964V7.77583C13.2092 7.77583 13.5073 7.47718 13.5073 7.10963H11.6511ZM12.8411 5.91964C13.4979 5.91964 14.0311 6.45188 14.0311 7.10963H12.1749C12.1749 7.47777 12.4735 7.77583 12.8411 7.77583V5.91964ZM14.0311 7.10967L14.0309 10.606L12.1747 10.6059L12.1749 7.10959L14.0311 7.10967ZM14.0309 10.6059V10.6466H12.1747V10.6059H14.0309ZM14.0309 10.6466C14.0309 10.3879 13.8221 10.18 13.5646 10.18V12.0362C12.7978 12.0362 12.1747 11.414 12.1747 10.6466H14.0309ZM13.5646 10.18C13.4413 10.18 13.3219 10.2301 13.2364 10.3153L14.5465 11.6303C14.2859 11.8899 13.9349 12.0362 13.5646 12.0362V10.18ZM13.2358 10.3159C13.147 10.4045 13.0982 10.5256 13.0982 10.6464H14.9544C14.9544 11.0149 14.8097 11.3675 14.5471 11.6297L13.2358 10.3159ZM13.0982 10.6464V7.10945H14.9544V10.6464H13.0982ZM13.0982 7.10945C13.0982 6.45261 13.6304 5.91946 14.2882 5.91946V7.77564C14.6563 7.77564 14.9544 7.47701 14.9544 7.10945H13.0982ZM14.2882 5.91946C14.945 5.91946 15.4781 6.45169 15.4781 7.10945H13.622C13.622 7.47759 13.9206 7.77564 14.2882 7.77564V5.91946ZM15.4781 7.10956L15.4778 9.77937L13.6216 9.77914L13.622 7.10933L15.4781 7.10956ZM15.4778 9.77925C15.4778 9.5218 15.2699 9.31297 15.0112 9.31297V11.1692C14.2438 11.1692 13.6216 10.5461 13.6216 9.77925H15.4778ZM15.0112 9.31297C14.8894 9.31297 14.7693 9.36226 14.6821 9.44938L15.9933 10.7631C15.7322 11.0238 15.3806 11.1692 15.0112 11.1692V9.31297ZM14.6814 9.45C14.5931 9.53837 14.5446 9.65899 14.5446 9.77925H16.4008C16.4008 10.1468 16.2568 10.4997 15.994 10.7625L14.6814 9.45ZM14.5446 9.77923L14.5447 4.36774L16.4009 4.36779L16.4008 9.77928L14.5446 9.77923ZM14.5447 4.36777C14.5447 2.99103 13.5437 2.02256 12.4949 2.02256V0.166369C14.7302 0.166369 16.4009 2.13505 16.4009 4.36777H14.5447ZM11.6025 0.839496L11.6025 0.839442L13.3873 1.34938L13.3873 1.34943L11.6025 0.839496Z" fill="#4CAF4F" mask="url(#path-1-inside-1_211_2339)"/>
<path d="M6.52862 15.7394C6.40432 15.8141 6.2436 15.7738 6.16932 15.6497C6.09486 15.5257 6.1352 15.3648 6.25902 15.2904M6.52862 15.7394L8.79123 12.6948C9.00983 12.5635 9.29812 12.6153 9.43292 12.8103M6.52862 15.7394L9.56149 13.9199H9.56166L9.56198 13.9197M6.52862 15.7394L10.726 14.298C10.8319 14.2344 10.9067 14.1337 10.9366 14.0142M6.25902 15.2904L9.29206 13.4708C9.39799 13.4072 9.47294 13.3064 9.50278 13.1871M6.25902 15.2904L6.28972 15.3415L6.39372 15.5149L6.39393 15.5152L6.44079 15.5934L6.49774 15.6883L6.49785 15.6882L6.49792 15.6882L6.49815 15.688M6.25902 15.2904L6.28978 15.3415M9.50278 13.1871C9.53558 13.0563 9.51066 12.9225 9.43292 12.8103M9.50278 13.1871L9.57764 13.2059L9.57049 13.052C9.56557 12.9461 9.53458 12.8521 9.48217 12.7766L9.48202 12.7763L9.43292 12.8103M9.50278 13.1871L9.57764 13.2059L9.58502 13.3647L9.43318 13.4558H9.43297L9.32276 13.5219L9.32274 13.5219L9.32272 13.522L6.28989 15.3414M9.43292 12.8103L9.48199 12.7763L7.24267 16.9288C7.3379 16.8715 7.36939 16.7476 7.31165 16.6515C7.2544 16.5561 7.13013 16.5248 7.03442 16.5822L10.0673 14.7628C10.137 14.7209 10.21 14.6893 10.2846 14.6676L10.755 14.3464L10.755 14.3464L10.7809 14.3287C10.8913 14.2533 10.9643 14.1489 10.9943 14.0287L10.9943 14.0286L10.9366 14.0142M6.28989 15.3414C6.38534 15.2844 6.50957 15.3153 6.56714 15.4108C6.56726 15.411 6.56739 15.4112 6.56751 15.4114C6.62474 15.5074 6.59318 15.6309 6.49815 15.688M6.28989 15.3414C6.28986 15.3415 6.28982 15.3415 6.28978 15.3415M6.28989 15.3414L6.28978 15.3415M6.49815 15.688L9.53077 13.8688L9.53083 13.8688L9.53099 13.8687C9.53108 13.8686 9.53117 13.8685 9.53126 13.8685L9.56149 13.9189L9.56166 13.9191L9.56198 13.9197M6.49815 15.688L6.39417 15.5151L6.39396 15.5148L6.35878 15.4563L6.28978 15.3415M9.56198 13.9197V13.8492C9.62051 13.8109 9.67406 13.7665 9.72188 13.7169L10.2211 13.4563L10.2211 13.4563L10.2488 13.4419C10.329 13.4 10.4099 13.3804 10.4868 13.3804C10.5284 13.3804 10.5713 13.3855 10.6149 13.3964C10.615 13.3964 10.615 13.3964 10.615 13.3964C10.6152 13.3964 10.6153 13.3965 10.6154 13.3965L10.7131 13.0041M9.56198 13.9197L10.2511 13.5063C10.3567 13.443 10.4803 13.4244 10.6005 13.4543C10.7201 13.4841 10.821 13.5589 10.8844 13.6647C10.9479 13.7706 10.9664 13.8948 10.9366 14.0142M10.7131 13.0041C10.7131 13.0041 10.7131 13.0041 10.7131 13.0041M10.7131 13.0041C10.9523 13.0639 11.1556 13.2148 11.2823 13.4258L11.3334 13.3952M10.7131 13.0041L10.7276 12.9462M10.7131 13.0041L10.6151 13.3964C10.7508 13.4303 10.8633 13.5137 10.9354 13.6338C10.9354 13.6339 10.9355 13.634 10.9355 13.634C10.9355 13.634 10.9355 13.6341 10.9355 13.6341C11.0078 13.7548 11.0282 13.8932 10.9944 14.0284L10.9943 14.0286L10.9366 14.0142M10.7131 13.0041C10.713 13.0041 10.713 13.0041 10.7129 13.0041L10.7124 13.0039C10.6407 12.9861 10.568 12.977 10.4957 12.9764M10.7131 13.0041L10.7276 12.9462M10.2755 15.1094L10.5371 14.9525L10.8068 15.1116C10.8876 15.1593 10.9487 15.2189 10.99 15.2879L10.9901 15.2882C10.9902 15.2882 10.9902 15.2883 10.9903 15.2884L10.9393 15.319M10.2755 15.1094L11.0493 15.683C11.083 15.5473 11.0625 15.409 10.9903 15.2884L10.9393 15.319M10.2755 15.1094L10.3062 15.1606M10.2755 15.1094L10.2755 15.1094L10.3062 15.1606M10.9393 15.319C10.8083 15.1007 10.5241 15.0297 10.3062 15.1606M10.9393 15.319C11.003 15.4248 11.0215 15.5491 10.9917 15.6686L10.3062 15.1606M11.3815 15.0387C11.3838 15.0423 11.386 15.0459 11.3881 15.0496L11.3815 15.0387ZM11.3815 15.0387C11.3659 15.0509 11.3499 15.0629 11.3338 15.0745C11.3348 15.0763 11.3359 15.078 11.337 15.0798L11.3815 15.0387ZM11.3093 14.331C11.3427 14.2669 11.3688 14.1984 11.3868 14.1267L11.3093 14.331ZM11.3093 14.331C11.326 14.3413 11.3425 14.352 11.3588 14.3631C11.3961 14.2938 11.425 14.2195 11.4445 14.141C11.5083 13.886 11.4688 13.6212 11.3334 13.3952M11.3093 14.331L11.3868 14.1266C11.4465 13.8875 11.4089 13.6372 11.2825 13.4262L11.2823 13.4259C11.2823 13.4259 11.2823 13.4259 11.2823 13.4258L11.3334 13.3952M11.3334 13.3952C11.1981 13.1696 10.9829 13.01 10.7276 12.9462M10.7276 12.9462L10.4905 12.9164M10.4905 12.9164C10.4926 12.9364 10.4944 12.9564 10.4957 12.9764M10.4905 12.9164C10.4893 12.9164 10.488 12.9163 10.4868 12.9163C10.3299 12.9163 10.1757 12.9565 10.034 13.0305M10.4905 12.9164L10.034 13.0305M10.4957 12.9764C10.4965 12.9872 10.4971 12.9981 10.4976 13.009L10.4868 13.0095L10.1987 13.0228M10.4957 12.9764C10.4928 12.9763 10.4898 12.9763 10.4868 12.9763C10.3889 12.9764 10.2918 12.9921 10.1987 13.0228M10.1987 13.0228L10.034 13.0305M10.1987 13.0228C10.1515 13.0385 10.1053 13.058 10.0606 13.0813C10.0443 13.0898 10.0283 13.0988 10.0125 13.1082L10.0123 13.1083L9.97934 13.1281M10.034 13.0305L9.76956 13.254L9.76965 13.2539L9.95294 13.2998C9.95293 13.2999 9.95292 13.2999 9.95291 13.3C9.96722 13.2429 9.97597 13.1854 9.97934 13.1281M10.034 13.0305L9.96319 12.8948M10.034 13.0305C10.0267 12.8724 9.98501 12.7167 9.90502 12.5777C9.88683 12.5858 9.86881 12.5943 9.85097 12.6031M9.97934 13.1281C9.98122 13.0963 9.98143 13.0646 9.98001 13.033C9.97792 12.9864 9.97229 12.9403 9.96319 12.8948M9.97934 13.1281L9.96319 12.8948M9.96319 12.8948L9.81931 12.6191C9.8298 12.6136 9.84035 12.6083 9.85097 12.6031M9.96319 12.8948L9.81443 12.5461C9.82734 12.5647 9.83952 12.5837 9.85097 12.6031M9.96319 12.8948C9.9428 12.7927 9.90503 12.6943 9.85097 12.6031M11.0426 14.7119L11.1219 14.5774C11.0876 14.6096 11.0506 14.6392 11.0113 14.6661C10.9962 14.6764 10.9807 14.6863 10.9649 14.6958L10.9647 14.696L10.9312 14.7161L11.0426 14.7119ZM3.63179 12.5523L3.57903 12.5245C3.56934 12.542 3.54519 12.5855 3.50952 12.6497C3.50069 12.6657 3.49115 12.6828 3.48095 12.7012C3.49914 12.7103 3.51748 12.7182 3.53585 12.7252C3.56722 12.6686 3.5992 12.611 3.63179 12.5523ZM7.77877 17.8229C7.77872 17.823 7.77867 17.823 7.77863 17.823L7.77877 17.8229Z" fill="#4CAF4F" stroke="#4CAF4F" stroke-width="0.928093"/>
<path d="M19.4805 13.3884L19.4805 13.3885L19.4805 13.3884ZM19.4805 13.3884C19.3833 13.2143 19.3872 12.9998 19.4902 12.8281L19.4805 13.3884ZM13.7389 12.9762C13.6664 12.9768 13.5935 12.986 13.5216 13.004L13.7389 12.9762ZM13.7389 12.9762C13.7403 12.9562 13.742 12.9363 13.7442 12.9163L13.7389 12.9762ZM19.0629 13.7139L19.0235 13.6429L19.0629 13.7139ZM17.9447 15.3414C17.9446 15.3413 17.9445 15.3413 17.9444 15.3412L17.9446 15.3413L17.9447 15.3414ZM16.4559 17.8234C16.4557 17.8233 16.4556 17.8232 16.4555 17.8232L16.4559 17.8234ZM16.4554 17.8231L16.4555 17.8231L16.4554 17.8231Z" fill="#4CAF4F" stroke="#4CAF4F" stroke-width="0.928093"/>
</svg>
