<svg width="35" height="34" viewBox="0 0 35 34" fill="none" xmlns="http://www.w3.org/2000/svg">
<g clip-path="url(#clip0_211_2332)">
<path d="M33.1456 27.0624L33.1457 27.0625C33.2769 26.9715 33.3888 26.8553 33.4747 26.7207L33.768 26.9079L33.4747 26.7207C33.5607 26.586 33.619 26.4357 33.6463 26.2783C33.6736 26.121 33.6694 25.9597 33.6339 25.804L33.9732 25.7266L33.6339 25.804C33.5983 25.6483 33.5322 25.5012 33.4393 25.3713L33.4378 25.3692C32.1307 23.5112 30.3498 22.0373 28.2801 21.1007L27.7754 20.8723L28.2002 20.5168C29.46 19.4623 30.3642 18.0452 30.7897 16.4584C31.2153 14.8715 31.1414 13.1921 30.5782 11.6488C30.015 10.1055 28.9898 8.77325 27.6423 7.83346C26.2948 6.89367 24.6904 6.392 23.0475 6.39677L23.0459 6.39678C22.3148 6.39556 21.5871 6.49651 20.8839 6.69671L20.8777 6.69848L20.8776 6.69843C20.7215 6.73976 20.5751 6.81175 20.447 6.9102C20.3189 7.00866 20.2116 7.13162 20.1315 7.27191C20.0514 7.41221 20 7.56705 19.9802 7.7274C19.9605 7.88776 19.9729 8.05044 20.0167 8.20596C20.0604 8.36148 20.1347 8.50675 20.2352 8.6333L19.9625 8.84966L20.2352 8.6333C20.3356 8.75985 20.4602 8.86515 20.6017 8.94307L20.4339 9.24795L20.6017 8.94308C20.7433 9.021 20.8989 9.07 21.0595 9.0872C21.2202 9.10441 21.3826 9.08949 21.5375 9.04331L21.5415 9.04212L21.5415 9.04214C22.0311 8.90245 22.5379 8.83206 23.0471 8.83302M33.1456 27.0624L23.0465 9.18105M33.1456 27.0624L33.1416 27.0653C32.9384 27.2105 32.6948 27.2883 32.445 27.2876C32.2497 27.2864 32.0575 27.2387 31.8842 27.1485C31.711 27.0584 31.5617 26.9284 31.4487 26.7692M33.1456 27.0624L31.1644 26.97M23.0471 8.83302L23.0465 9.18105M23.0471 8.83302C23.0469 8.83302 23.0467 8.83302 23.0465 8.83302V9.18105M23.0471 8.83302C24.5238 8.83319 25.9399 9.41986 26.984 10.464C28.0284 11.5083 28.615 12.9247 28.615 14.4016C28.615 15.8784 28.0284 17.2948 26.984 18.3391C25.9397 19.3834 24.5234 19.9701 23.0465 19.9701C22.7234 19.9701 22.4136 20.0985 22.1851 20.3269C21.9567 20.5554 21.8284 20.8652 21.8284 21.1883C21.8284 21.5113 21.9567 21.8212 22.1851 22.0496C22.4136 22.278 22.7234 22.4064 23.0465 22.4064H23.0469C24.6943 22.4082 26.3172 22.8054 27.7793 23.5646C29.2412 24.3238 30.4996 25.4228 31.4487 26.7692M23.0465 9.18105C24.4311 9.18105 25.7589 9.73107 26.7379 10.7101C27.717 11.6891 28.267 13.017 28.267 14.4016C28.267 15.7861 27.717 17.114 26.7379 18.093C25.7589 19.0721 24.4311 19.6221 23.0465 19.6221C22.6311 19.6221 22.2328 19.7871 21.939 20.0808C21.6453 20.3745 21.4803 20.7729 21.4803 21.1883C21.4803 21.6036 21.6453 22.002 21.939 22.2957C22.2328 22.5894 22.6311 22.7544 23.0465 22.7544C24.6382 22.7562 26.2063 23.1399 27.6189 23.8735C29.0315 24.607 30.2474 25.669 31.1644 26.97M31.4487 26.7692C31.4485 26.769 31.4484 26.7688 31.4483 26.7686L31.1644 26.97M31.4487 26.7692C31.4487 26.7693 31.4488 26.7694 31.4489 26.7695L31.1644 26.97M17.5628 20.5173L17.14 20.873L17.6433 21.1007C19.7129 22.0373 21.4939 23.5112 22.801 25.3692L22.806 25.3762L22.8113 25.3831C22.9128 25.5131 22.9869 25.6625 23.0289 25.8221C23.071 25.9816 23.0802 26.1481 23.056 26.3113C23.0318 26.4746 22.9746 26.6312 22.8881 26.7717C22.8015 26.9122 22.6873 27.0336 22.5523 27.1286C22.4174 27.2236 22.2646 27.2902 22.1031 27.3243C21.9417 27.3585 21.775 27.3595 21.6131 27.3272C21.4513 27.295 21.2977 27.2302 21.1616 27.1368C21.0256 27.0434 20.9099 26.9233 20.8217 26.7839L20.8172 26.7768L20.8124 26.77C19.8653 25.421 18.6072 24.3198 17.1447 23.5596C15.6821 22.7995 14.058 22.4026 12.4097 22.4026C10.7613 22.4026 9.13725 22.7995 7.67468 23.5596C6.21212 24.3198 4.95408 25.421 4.00692 26.77L4.00614 26.7711C3.8948 26.931 3.74634 27.0615 3.5735 27.1515C3.40066 27.2414 3.20858 27.2881 3.01373 27.2876L3.0116 27.2876C2.7617 27.2884 2.51787 27.2106 2.31457 27.0653L2.3129 27.0641C2.04938 26.8781 1.87041 26.5952 1.81522 26.2774C1.76005 25.9597 1.8331 25.6331 2.01835 25.3692C3.32545 23.5112 5.1064 22.0373 7.17602 21.1007L7.67933 20.873L7.25658 20.5173C6.00015 19.4604 5.09913 18.0426 4.67568 16.4563C4.25222 14.8699 4.32681 13.1918 4.88934 11.6492C5.45187 10.1067 6.47512 8.77451 7.82036 7.83318C9.16561 6.89186 10.7678 6.38698 12.4097 6.38698C14.0516 6.38698 15.6537 6.89186 16.999 7.83318C18.3442 8.77451 19.3675 10.1067 19.93 11.6492C20.4925 13.1918 20.5671 14.8699 20.1437 16.4563C19.7202 18.0426 18.8192 19.4604 17.5628 20.5173ZM7.77958 11.3079C7.1677 12.2236 6.84111 13.3002 6.84111 14.4016C6.84111 15.8784 7.4278 17.2948 8.47211 18.3391C9.51641 19.3834 10.9328 19.9701 12.4097 19.9701C13.511 19.9701 14.5876 19.6435 15.5034 19.0317C16.4191 18.4198 17.1329 17.5501 17.5543 16.5326C17.9758 15.515 18.0861 14.3954 17.8712 13.3152C17.6564 12.235 17.126 11.2428 16.3472 10.464C15.5685 9.68524 14.5762 9.15488 13.496 8.94002C12.4158 8.72515 11.2962 8.83543 10.2787 9.2569C9.26115 9.67837 8.39146 10.3921 7.77958 11.3079Z" fill="#4CAF4F" stroke="#4CAF4F" stroke-width="0.696069"/>
</g>
<defs>
<clipPath id="clip0_211_2332">
<rect width="33.4113" height="33.4113" fill="white" transform="translate(0.924561 0.306152)"/>
</clipPath>
</defs>
</svg>
