<svg width="25" height="17" viewBox="0 0 25 17" fill="none" xmlns="http://www.w3.org/2000/svg">
<path d="M13.3106 9.17142L9.55815 15.5982L5.80572 9.17142H13.3106ZM14.3159 8.59702H4.79639L9.55815 16.7349L14.3159 8.59702Z" fill="#263238"/>
<path d="M19.8348 1.17803L23.5872 7.60476H16.0823L19.8348 1.17803ZM19.8348 0.0292511L15.073 8.16711H24.5966L19.8348 0.0292511Z" fill="#263238"/>
<path d="M0.233887 0.0292511L4.22647 7.2272L8.5894 0.209993L0.233887 0.0292511Z" fill="#4CAF4F"/>
<path d="M9.55813 0.659805L13.7461 7.81759H5.36206L9.55813 0.659805Z" fill="#4CAF4F"/>
<path d="M14.8245 9.38029L19.0165 16.7349H10.4331L14.6943 9.38029H14.8245Z" fill="#4CAF4F"/>
<path d="M15.7322 8.93442L19.8346 16.1765L23.9941 8.93442H15.7322Z" fill="#4CAF4F"/>
</svg>
