<svg width="39" height="34" viewBox="0 0 39 34" fill="none" xmlns="http://www.w3.org/2000/svg">
<g clip-path="url(#clip0_211_2052)">
<path d="M38.5802 13.9505C38.5841 13.9214 38.5841 13.8921 38.5802 13.8631C38.5839 13.8394 38.5839 13.8153 38.5802 13.7916L38.2965 11.7503C38.2556 11.5061 38.1462 11.2778 37.9806 11.091L37.9319 11.0354L37.8429 10.948L32.9331 6.80185L33.0708 6.93689C32.9581 6.80472 32.8167 6.699 32.6569 6.62752C32.497 6.55604 32.3228 6.52061 32.1472 6.52386H30.6564C30.414 6.51915 30.1771 6.59471 29.984 6.73832C29.7811 6.59557 29.5369 6.5204 29.2872 6.52386H27.7964C27.6009 6.52075 27.408 6.56832 27.2373 6.66177C27.0666 6.75522 26.9241 6.89123 26.8242 7.05603C26.6702 7.29141 26.6124 7.575 26.6621 7.85032L26.8485 9.13706C26.725 9.06846 26.5853 9.03286 26.4434 9.03382H19.2246C18.9655 9.03541 18.7125 9.10983 18.4954 9.24827C18.2854 9.37712 18.1168 9.56162 18.0093 9.78044L17.4502 9.31181C17.2302 9.11223 16.9398 9.00405 16.64 9.00999H5.31348C5.05356 9.01463 4.79941 9.08581 4.57622 9.2165C4.27087 9.39171 4.0471 9.6766 3.95235 10.0108L0.355083 21.806C0.287869 22.0004 0.281257 22.21 0.336094 22.408C0.390931 22.606 0.504733 22.7836 0.662961 22.918C0.704191 22.9523 0.747482 22.9841 0.792595 23.0133C0.792595 23.0133 0.719666 22.9656 0.679156 22.926L5.58897 27.0801C5.79666 27.2675 6.06821 27.3723 6.3505 27.3739H17.7662C18.0269 27.3673 18.2812 27.2933 18.5035 27.1595C18.6292 27.0921 18.7416 27.0034 18.8357 26.8974L18.8762 26.8418L18.941 26.7624L18.9896 26.675L19.5243 27.1277C19.729 27.3077 19.9947 27.4068 20.2697 27.4057H31.7097C31.9701 27.3972 32.2239 27.3234 32.4469 27.1913C32.5698 27.1198 32.6816 27.0315 32.7792 26.9292L32.8196 26.8736L32.8844 26.7942C32.9189 26.7439 32.9488 26.6907 32.9735 26.6352C33 26.5871 33.0217 26.5366 33.0384 26.4844L36.3197 15.7138V15.6185C36.3237 15.5815 36.3237 15.5442 36.3197 15.5073V15.4358C36.3236 15.4121 36.3236 15.388 36.3197 15.3643C36.3233 15.3141 36.3233 15.2636 36.3197 15.2134H37.3729C37.4646 15.2216 37.5568 15.2216 37.6484 15.2134H37.7213C37.7806 15.196 37.8377 15.172 37.8915 15.1419H37.9725L38.1183 15.0307L38.1831 14.983L38.2965 14.84V14.7924L38.3776 14.6574C38.3731 14.6311 38.3731 14.6042 38.3776 14.578C38.3733 14.5651 38.3733 14.5511 38.3776 14.5382C38.3948 14.4917 38.4084 14.4439 38.4181 14.3953C38.4143 14.3796 38.4143 14.3633 38.4181 14.3476C38.4142 14.3239 38.4142 14.2998 38.4181 14.2761C38.4181 14.2761 38.5802 13.9663 38.5802 13.9505Z" fill="black"/>
<path d="M16.9722 9.91551C17.0152 9.95364 17.0453 10.0038 17.0583 10.0592C17.0714 10.1146 17.0668 10.1725 17.0452 10.2253L13.456 22.0125C13.4108 22.1412 13.3183 22.2488 13.1967 22.3144C13.0978 22.3793 12.9833 22.4176 12.8645 22.4256H1.45699C1.35957 22.421 1.26727 22.3814 1.19772 22.3144C1.15635 22.2769 1.12731 22.2281 1.11432 22.1744C1.10133 22.1206 1.10499 22.0643 1.12481 22.0125L4.72208 10.2253C4.76352 10.095 4.85308 9.9845 4.97323 9.91551C5.07382 9.85527 5.1878 9.81984 5.30542 9.81225H16.7129C16.8096 9.81316 16.9023 9.85008 16.9722 9.91551ZM11.0173 19.6376L13.1643 12.6002H7.15268L5.01374 19.6376H11.0173ZM27.8612 10.0346C27.9002 10.079 27.9488 10.1142 28.0035 10.1375C28.0583 10.1609 28.1176 10.1719 28.1772 10.1697H29.6599C29.7164 10.1702 29.772 10.1566 29.8216 10.1302C29.8713 10.1038 29.9132 10.0655 29.9435 10.0188C29.9698 9.98228 29.9884 9.94098 29.9981 9.89732C30.0079 9.85366 30.0085 9.80852 30.0001 9.76459L29.7085 7.66767C29.6807 7.57062 29.6309 7.481 29.5627 7.40555C29.5237 7.36121 29.4751 7.32604 29.4204 7.30266C29.3657 7.27929 29.3063 7.2683 29.2467 7.27052H27.764C27.7076 7.26998 27.6519 7.28356 27.6023 7.30996C27.5527 7.33637 27.5107 7.37473 27.4805 7.42144C27.4237 7.53264 27.3995 7.60412 27.4237 7.66767L27.7235 9.76459C27.7389 9.8667 27.7872 9.96131 27.8612 10.0346ZM32.5685 7.65178C32.5407 7.55473 32.4908 7.46511 32.4227 7.38966C32.3854 7.34548 32.3382 7.31033 32.2848 7.28691C32.2314 7.26349 32.1732 7.25245 32.1148 7.25464H30.624C30.5685 7.25309 30.5136 7.26629 30.4651 7.29286C30.4166 7.31943 30.3763 7.35837 30.3486 7.40555C30.2947 7.47602 30.2713 7.56453 30.2838 7.65178L30.5835 9.7487C30.6023 9.84973 30.6501 9.94341 30.7213 10.0188C30.7609 10.0622 30.8096 10.0968 30.8642 10.1201C30.9187 10.1434 30.9777 10.1549 31.0372 10.1538H32.528C32.5834 10.1545 32.638 10.1409 32.6863 10.1145C32.7347 10.088 32.7751 10.0495 32.8035 10.0029C32.8317 9.96734 32.8513 9.92606 32.8612 9.88208C32.871 9.8381 32.8706 9.79253 32.8602 9.7487L32.5685 7.65178ZM26.5568 10.8289L26.411 9.79636H19.2246C19.1117 9.80246 19.0026 9.83812 18.9086 9.89962C18.8489 9.93152 18.797 9.97574 18.7564 10.0292C18.7159 10.0827 18.6876 10.1442 18.6737 10.2094L18.0741 12.1792C18.0502 12.2284 18.042 12.2837 18.0506 12.3376C18.0594 12.3914 18.0845 12.4414 18.1227 12.4811C18.191 12.544 18.2802 12.5807 18.3739 12.5843H27.1078L24.9608 19.6217H16.2511C16.1388 19.6243 16.0295 19.6572 15.9352 19.717C15.8206 19.7884 15.7369 19.8987 15.7002 20.0268L15.0926 21.9967C15.0728 22.0472 15.0675 22.1021 15.0775 22.1554C15.0876 22.2087 15.1124 22.2582 15.1493 22.2985C15.2155 22.3657 15.3053 22.4054 15.4004 22.4097H26.8404C26.9587 22.3997 27.0728 22.3615 27.1726 22.2985C27.2922 22.2326 27.382 22.1248 27.4237 21.9967L30.7131 11.2261H27.0106C26.9518 11.2272 26.8935 11.2165 26.8391 11.1947C26.7848 11.1728 26.7356 11.1402 26.6946 11.099C26.6276 11.027 26.5802 10.9396 26.5568 10.8448V10.8289Z" fill="white"/>
</g>
<defs>
<clipPath id="clip0_211_2052">
<rect width="38.2838" height="20.8821" fill="white" transform="translate(0.299316 6.52365)"/>
</clipPath>
</defs>
</svg>
