<svg width="34" height="34" viewBox="0 0 34 34" fill="none" xmlns="http://www.w3.org/2000/svg">
<g clip-path="url(#clip0_211_2056)">
<path d="M31.7849 9.70096C31.7849 9.72449 31.7849 9.75391 31.7788 9.77157C31.7481 10.001 31.7481 10.2305 31.7665 10.4659C31.7788 10.5247 31.791 10.5836 31.8401 10.6307C31.9198 10.7189 32.0424 10.7013 32.0915 10.5954C32.116 10.5424 32.116 10.4894 32.1037 10.4365C32.0424 10.2129 32.0301 9.97751 32.024 9.74803C32.024 9.73626 32.024 9.7186 32.024 9.70096C32.0914 9.69507 32.1528 9.68918 32.2079 9.68918C32.2509 9.6833 32.2876 9.67742 32.3183 9.65976C32.4102 9.61269 32.4102 9.51266 32.3121 9.46559C32.2754 9.44793 32.2263 9.44205 32.1834 9.44205C32.0301 9.44793 31.8769 9.44793 31.7236 9.44793C31.6684 9.44793 31.6132 9.45382 31.558 9.4597C31.5274 9.46559 31.4906 9.46559 31.4661 9.48324C31.4232 9.50089 31.3987 9.53031 31.3987 9.5715C31.4048 9.61269 31.4232 9.63623 31.4661 9.65388C31.4906 9.67153 31.5213 9.67742 31.5519 9.67742C31.6255 9.6833 31.7052 9.69507 31.7849 9.70096ZM33.4709 9.97163C33.4709 9.97751 33.477 9.98339 33.477 9.98339C33.5015 10.1423 33.5261 10.2953 33.5444 10.4482C33.5506 10.5012 33.5567 10.5483 33.5935 10.5895C33.6732 10.6895 33.7958 10.6777 33.851 10.5718C33.8755 10.5189 33.8816 10.4659 33.8694 10.4071C33.8326 10.2305 33.8142 10.054 33.7774 9.88336C33.7529 9.77745 33.7223 9.67742 33.6916 9.58327C33.6732 9.52443 33.6303 9.48324 33.5567 9.47735C33.4832 9.46559 33.428 9.50089 33.3973 9.55385C33.3605 9.60092 33.3299 9.64799 33.3053 9.70096C33.2624 9.7951 33.2256 9.88925 33.1766 9.97751C33.1704 10.001 33.1643 10.0187 33.1521 10.0364C33.146 10.0246 33.1398 10.0187 33.1398 10.0187C33.0601 9.8716 32.9865 9.72449 32.9069 9.58327C32.8946 9.5715 32.8884 9.55973 32.8823 9.54796C32.8455 9.49501 32.8026 9.46559 32.7352 9.46559C32.6739 9.47147 32.6248 9.50678 32.5942 9.55973C32.5819 9.58327 32.5819 9.60092 32.5758 9.62446C32.5512 9.81275 32.5206 10.001 32.4961 10.1893C32.4838 10.2953 32.4777 10.4012 32.4777 10.5071C32.4716 10.5306 32.4777 10.56 32.4899 10.5836C32.5022 10.6307 32.539 10.6601 32.588 10.666C32.6493 10.6718 32.6922 10.6542 32.7107 10.6071C32.729 10.5718 32.7352 10.5424 32.7413 10.513C32.7659 10.4071 32.7842 10.307 32.8026 10.207C32.8149 10.1482 32.821 10.1011 32.8394 10.0364C32.8517 10.0599 32.8639 10.0775 32.8762 10.0952C32.9313 10.1658 32.9865 10.2364 33.054 10.2953C33.1214 10.3423 33.1766 10.3364 33.2318 10.2835C33.2441 10.2717 33.2502 10.2658 33.2624 10.2541C33.3176 10.1717 33.3851 10.0893 33.4402 10.0069C33.4525 9.99516 33.4586 9.98339 33.4709 9.97163Z" fill="#3A3B7B"/>
<path d="M19.3447 9.81659C19.3021 9.92842 19.294 10.009 19.3136 10.0759C19.3354 10.167 19.3918 10.1968 19.4683 10.1737C20.1884 10.0027 21.7675 10.4879 22.3521 10.6231C22.49 10.6514 22.6022 10.4806 22.5081 10.3275C22.3708 10.1791 20.7924 9.54412 20.1902 9.5095C19.9541 9.4967 19.5321 9.4386 19.3447 9.81659Z" fill="#3A3B7B"/>
<path d="M25.516 7.76096C25.5928 7.80347 25.6357 7.84403 25.6568 7.88934C25.6884 7.94878 25.6717 7.9899 25.6187 8.01089C25.1427 8.23386 24.5093 9.1938 24.2536 9.52488C24.1917 9.60104 24.0487 9.55678 24.0271 9.43153C24.0315 9.28992 24.593 8.24817 24.9064 7.96443C25.0295 7.85365 25.233 7.63629 25.516 7.76096Z" fill="#3A3B7B"/>
<path d="M21.7252 7.28839C21.8174 7.22169 21.9132 7.19832 21.9622 7.24166C22.6804 7.83116 23.0612 8.76469 23.297 9.61931C23.3059 9.63922 23.3065 9.66779 23.2994 9.6976C23.2964 9.72308 23.277 9.74999 23.2462 9.77081C23.2133 9.7938 23.185 9.8008 23.1717 9.78099C22.8569 9.37008 21.0591 7.7713 21.7252 7.28839Z" fill="#3A3B7B"/>
<path d="M6.5167 17.5088C6.68883 17.3858 6.87596 17.2834 7.07398 17.204C7.28116 17.1471 7.50199 17.1565 7.7031 17.2309C7.90416 17.3052 8.0746 17.4403 8.18855 17.6158C8.29048 17.7909 8.33034 17.993 8.30221 18.1918C8.27407 18.3905 8.17943 18.575 8.03249 18.7176C7.9186 18.8333 7.78928 18.934 7.648 19.0172C7.01827 19.4076 6.38294 19.7767 5.74765 20.1671C5.61765 20.2649 5.47974 20.3525 5.33525 20.4292C5.11547 20.5344 4.86429 20.5626 4.62514 20.5089C4.386 20.4552 4.17394 20.3229 4.02563 20.1351C3.91476 20.002 3.82119 19.8566 3.74699 19.7018C3.14512 18.4877 2.52096 17.2788 1.94138 16.0433C1.67388 15.5084 1.45654 14.8933 1.24478 14.2996C1.15316 14.1271 1.13526 13.9271 1.19491 13.7422C1.25456 13.5572 1.38704 13.4018 1.56417 13.3092C1.74131 13.2165 1.94911 13.1938 2.1434 13.246C2.3377 13.2981 2.50314 13.4209 2.60455 13.5882C2.91626 13.9858 3.19218 14.4081 3.42933 14.8506C4.0312 15.9203 4.60521 16.99 5.18478 18.0277C5.21853 18.085 5.25574 18.1403 5.29624 18.1935C5.73247 18.0174 6.14277 17.7873 6.5167 17.5088Z" fill="#3A3B7B"/>
<path d="M12.7396 17.1357C11.3631 18.6814 9.05594 18.291 7.8968 16.3013C7.072 14.8892 6.92712 12.5572 8.72159 11.0863C9.10478 10.7783 9.56298 10.5686 10.0535 10.4765C10.6549 10.3938 11.2682 10.4956 11.8056 10.7675C12.3431 11.0393 12.7773 11.4673 13.0461 11.9902C14.0269 13.7018 13.8876 15.8841 12.7396 17.1357ZM12.1823 13.5306C12.0361 13.11 11.7427 12.751 11.3519 12.5144C11.1308 12.3631 10.8622 12.2896 10.5912 12.3061C10.3202 12.3227 10.0634 12.4284 9.86401 12.6053C9.06711 13.2846 8.89989 14.8946 9.47947 15.852C9.55336 16.0081 9.66183 16.1468 9.79741 16.2585C9.93299 16.3702 10.0924 16.4521 10.2644 16.4984C10.4363 16.5448 10.6168 16.5545 10.7931 16.5269C10.9695 16.4993 11.1373 16.4351 11.2851 16.3387C11.7171 16.0172 12.034 15.5746 12.1918 15.0724C12.3496 14.57 12.3405 14.0331 12.1656 13.536L12.1823 13.5306Z" fill="#3A3B7B"/>
<path d="M18.3571 14.2046C18.2161 14.2337 18.0706 14.2354 17.9289 14.2097C17.7873 14.184 17.6524 14.1313 17.5323 14.0549C17.4272 13.9971 17.3367 13.9178 17.2674 13.8225C17.198 13.7273 17.1516 13.6184 17.1314 13.5038C17.1111 13.3893 17.1176 13.2718 17.1502 13.1599C17.1829 13.048 17.2411 12.9445 17.3205 12.8567C17.4589 12.6804 17.6553 12.5541 17.8778 12.4984C18.4589 12.3365 19.0571 12.2378 19.6611 12.2042C19.7939 12.1894 19.9283 12.2002 20.0566 12.2359C20.1849 12.2717 20.3045 12.3317 20.4083 12.4124C20.5121 12.4931 20.5981 12.5929 20.6612 12.706C20.7243 12.819 20.7632 12.943 20.7757 13.0707C20.9498 13.6978 20.9689 14.3554 20.8314 14.9909C20.3299 17.0448 18.6023 17.7508 16.6629 17.0929C16.1185 16.917 15.6412 16.5893 15.292 16.1515C14.8262 15.6244 14.496 14.9997 14.3279 14.3276C14.1917 13.7292 14.2066 13.1082 14.3714 12.5164C14.5362 11.9246 14.8461 11.3793 15.2753 10.9259C15.6825 10.4331 16.2111 10.0452 16.8134 9.79729C17.194 9.59596 17.6393 9.53871 18.0617 9.63683C18.1575 9.66228 18.2445 9.71188 18.3136 9.78047C18.3828 9.84906 18.4315 9.93415 18.4548 10.0269C18.4781 10.1197 18.4752 10.2167 18.4462 10.308C18.4173 10.3993 18.3634 10.4815 18.2902 10.5461C18.151 10.667 17.9998 10.7745 17.8388 10.867C17.3433 11.1699 16.9122 11.5601 16.5682 12.017C16.3427 12.3127 16.1874 12.6522 16.1133 13.0117C16.0391 13.3711 16.0479 13.7418 16.1391 14.0977C16.2655 14.5829 16.5459 15.0184 16.9416 15.3439C18.1676 16.4136 19.7614 15.3813 19.4828 13.9211C19.076 14.0174 18.7193 14.119 18.3571 14.2046Z" fill="#3A3B7B"/>
<path d="M25.847 17.2213C24.0359 18.291 21.9739 17.2213 21.5225 14.9748C21.1937 13.3702 21.8179 11.1238 24.0025 10.268C24.4672 10.0898 24.9714 10.0273 25.4681 10.0861C26.0649 10.191 26.6123 10.4729 27.0332 10.8923C27.4542 11.3116 27.7274 11.8472 27.8143 12.4235C28.1821 14.333 27.3461 16.3708 25.847 17.2213ZM26.4768 13.6216C26.4762 13.1773 26.3125 12.7473 26.0143 12.4075C25.8548 12.1972 25.6244 12.0466 25.3622 11.9813C25.1 11.9159 24.8223 11.9399 24.5764 12.0491C23.5956 12.4556 22.9046 13.9318 23.1554 15.0176C23.1745 15.188 23.2322 15.3524 23.3244 15.4991C23.4166 15.6459 23.5411 15.7715 23.6892 15.8673C23.8373 15.9631 24.0054 16.0267 24.1817 16.0536C24.3581 16.0805 24.5385 16.0701 24.7102 16.0232C25.2286 15.8494 25.6775 15.5245 25.9942 15.0939C26.3109 14.6634 26.4797 14.1486 26.4768 13.6216Z" fill="#3A3B7B"/>
<path d="M29.6458 17.6706C29.6185 17.8663 29.5112 18.0437 29.3477 18.1635C29.1841 18.2834 28.9776 18.336 28.7737 18.3097C28.5697 18.2835 28.385 18.1806 28.2601 18.0236C28.1351 17.8666 28.0804 17.6684 28.1077 17.4727C28.1351 17.2769 28.2423 17.0996 28.4058 16.9797C28.5694 16.8598 28.7759 16.8073 28.9799 16.8335C29.1838 16.8597 29.3686 16.9626 29.4935 17.1196C29.6184 17.2766 29.6732 17.4748 29.6458 17.6706ZM29.161 10.4552C29.267 10.2998 29.4224 10.1815 29.6042 10.1179C29.786 10.0543 29.9844 10.0487 30.1697 10.1022C30.3581 10.1474 30.5245 10.2534 30.6412 10.4024C30.7578 10.5513 30.8176 10.7343 30.8106 10.9205C30.786 11.2192 30.7394 11.5159 30.6712 11.8084C30.4873 12.7979 30.309 13.7874 30.114 14.7662C30.0248 15.1567 29.9078 15.5311 29.7796 15.9269C29.735 16.0506 29.6605 16.1624 29.5622 16.2532C29.5011 16.3214 29.4231 16.3738 29.3354 16.4054C29.2476 16.437 29.153 16.4469 29.0602 16.4341C28.9674 16.4213 28.8795 16.3862 28.8045 16.3322C28.7296 16.2781 28.6701 16.2068 28.6316 16.1248C28.5653 15.9777 28.5293 15.8197 28.5257 15.6595C28.5257 14.9962 28.5257 14.3276 28.5703 13.659C28.646 12.7049 28.795 11.7574 29.0161 10.8242C29.0421 10.6992 29.0911 10.5797 29.161 10.4712V10.4552Z" fill="#3A3B7B"/>
<path fill-rule="evenodd" clip-rule="evenodd" d="M4.16219 21.9687C4.09639 22.1097 4.07834 22.2669 4.1105 22.4181C4.13189 22.6175 4.17887 22.8136 4.25038 23.002C4.33966 23.2327 4.43955 23.4608 4.56273 23.7419C4.59106 23.8066 4.62066 23.8741 4.65164 23.9452C4.81775 24.3261 5.02617 24.8128 5.30418 25.5173C5.38287 25.7174 5.45275 25.9192 5.52311 26.1223C5.55154 26.2044 5.58006 26.2867 5.60926 26.3693C5.71393 26.6627 5.89404 26.9263 6.13276 27.1352C6.23414 27.2501 6.3686 27.3337 6.51937 27.3756C6.67308 27.4182 6.83656 27.4155 6.98864 27.3678C7.14072 27.3201 7.27429 27.2295 7.37202 27.1079C7.46783 26.9886 7.5248 26.845 7.53588 26.6949C7.59803 26.4024 7.57682 26.0992 7.47437 25.8173C7.31178 25.3492 7.12656 24.8804 6.91298 24.422L6.912 24.4199C6.56063 23.7026 6.20348 22.9902 5.82942 22.2776L5.82662 22.2726C5.71712 22.0869 5.57481 21.9209 5.40609 21.7821C5.29656 21.6582 5.14548 21.5746 4.97863 21.5458C4.80823 21.5164 4.63248 21.546 4.48277 21.6294C4.34114 21.7071 4.22887 21.8258 4.16219 21.9687Z" fill="#3A3B7B"/>
<path fill-rule="evenodd" clip-rule="evenodd" d="M9.52871 20.2023C8.97778 20.0653 8.40242 20.0454 7.8427 20.1438C7.40918 20.1848 6.98281 20.2808 6.68673 20.4709C6.53615 20.5676 6.4144 20.6919 6.34668 20.8498C6.27859 21.0086 6.26989 21.1902 6.3257 21.3925C6.42758 21.7631 6.55989 22.1234 6.69173 22.4826L6.71309 22.5407L6.71361 22.542C7.11058 23.5855 7.51135 24.6254 7.91575 25.6617C7.96291 25.825 8.0296 25.9825 8.11447 26.1311L8.11606 26.1339C8.22818 26.3185 8.37199 26.4836 8.54141 26.6223C8.62614 26.6986 8.73092 26.7513 8.84454 26.7749C8.95928 26.7987 9.07859 26.7918 9.1895 26.7549C9.30045 26.7181 9.39869 26.6527 9.47356 26.5659C9.54722 26.4805 9.59545 26.3776 9.61316 26.2682C9.68626 25.9708 9.66284 25.6591 9.546 25.3748C9.50955 25.2792 9.48094 25.1814 9.4508 25.0785C9.44075 25.0442 9.43056 25.0093 9.41981 24.9737C10.3455 24.6264 11.3305 24.1594 11.6768 23.0731C11.8125 22.6976 11.8238 22.2911 11.7092 21.9092C11.5945 21.5269 11.3592 21.1881 11.0357 20.9393C10.5954 20.5911 10.081 20.3395 9.52871 20.2023ZM8.00161 21.5348C8.01983 21.5297 8.0382 21.5251 8.05662 21.5207C8.65928 21.4298 9.27587 21.5509 9.79286 21.8618C10.0207 22.0139 10.114 22.1829 10.1301 22.3454C10.1466 22.5128 10.0832 22.6942 9.95578 22.8686C9.71505 23.198 9.27573 23.4617 8.87889 23.5108C8.58959 22.8714 8.29581 22.2061 8.00161 21.5348Z" fill="#3A3B7B"/>
<path d="M13.2016 19.0319C13.8577 18.741 14.6704 18.6908 15.3064 18.8953C15.4665 18.9401 15.6055 19.0369 15.6995 19.1693C15.7928 19.3008 15.8359 19.4593 15.8215 19.6178C15.8206 19.7206 15.7943 19.8218 15.7448 19.9131C15.6944 20.0061 15.6215 20.086 15.5321 20.1462C15.4427 20.2063 15.3396 20.245 15.2314 20.2588C15.1232 20.2727 15.0131 20.2613 14.9104 20.2256L14.9026 20.2229L14.8953 20.2192C14.8427 20.1928 14.7869 20.173 14.7292 20.16L14.7256 20.1592C14.2782 20.0452 13.8562 20.2342 13.7021 20.4663C13.6286 20.5771 13.6195 20.6888 13.6807 20.7905C13.7463 20.8993 13.9071 21.0215 14.2325 21.1086C14.322 21.1322 14.4137 21.1549 14.5068 21.178C14.7641 21.242 15.0316 21.3084 15.2901 21.4005L15.2911 21.4009C16.4841 21.8365 16.9283 22.7388 16.7763 23.5874C16.6258 24.4267 15.8956 25.1904 14.7974 25.3706C14.3978 25.4556 13.982 25.439 13.591 25.3226C13.1991 25.2057 12.8458 24.9925 12.5663 24.704L12.559 24.6965C12.4707 24.5878 12.4114 24.4602 12.3851 24.3247C12.3609 24.2024 12.3736 24.0761 12.4218 23.9605C12.4696 23.8456 12.5506 23.7462 12.655 23.6738C12.7654 23.5916 12.8984 23.5424 13.0376 23.5321C13.1764 23.5219 13.3152 23.5508 13.4371 23.6153C13.5588 23.6717 13.672 23.7437 13.7736 23.8293L13.7755 23.8309C13.9552 23.9887 14.1727 24.0298 14.3812 23.9917C14.5928 23.9531 14.7917 23.8329 14.9197 23.6735C15.0468 23.5151 15.0979 23.3269 15.0373 23.1442C14.9764 22.9602 14.7931 22.754 14.3905 22.5817C14.2852 22.5388 14.1761 22.5042 14.0626 22.4705C14.032 22.4614 14.0008 22.4524 13.9693 22.4432C13.8854 22.4187 13.799 22.3936 13.7143 22.3658C13.656 22.3467 13.5982 22.3286 13.5409 22.3107C13.3842 22.2618 13.2316 22.214 13.0846 22.15C12.7648 22.0455 12.4885 21.8449 12.2968 21.5777C12.1044 21.3095 12.0075 20.9888 12.0207 20.6634C12.0217 19.8705 12.5421 19.3243 13.2016 19.0319Z" fill="#3A3B7B"/>
<path d="M21.5194 18.9474C21.3922 18.8878 21.2515 18.8595 21.1101 18.865C20.9687 18.8706 20.8309 18.9099 20.7092 18.9794C20.5883 19.0484 20.4871 19.145 20.4145 19.2606C20.348 19.358 20.302 19.467 20.2791 19.5813C20.2561 19.6956 20.2567 19.8131 20.2806 19.9271C20.3043 20.0736 20.3306 20.2161 20.3565 20.3566C20.3995 20.5892 20.4413 20.8165 20.4689 21.0483L20.4699 21.0541C20.5326 21.4176 20.5655 21.7852 20.5684 22.1536L20.5687 22.1589C20.5902 22.5567 20.4489 22.9468 20.1753 23.2464L20.171 23.2517C20.0819 23.3612 19.9629 23.4448 19.8271 23.4931C19.6914 23.5414 19.5444 23.5525 19.4024 23.5252C19.2605 23.4978 19.1293 23.4331 19.0235 23.3383C18.9177 23.2435 18.8414 23.1219 18.8033 22.9879C18.722 22.7054 18.6749 22.4149 18.6629 22.1221L18.8018 19.9997C18.8039 19.972 18.8062 19.9435 18.8086 19.9148C18.8139 19.8504 18.8193 19.7847 18.8215 19.7235C18.8248 19.6334 18.822 19.5407 18.8001 19.453C18.7778 19.3633 18.7352 19.278 18.6597 19.2054C18.5849 19.1335 18.4839 19.0805 18.3569 19.0444C18.1272 18.9806 17.933 18.9826 17.7711 19.0485C17.6092 19.1144 17.4982 19.2368 17.4197 19.3782C17.3418 19.5184 17.2917 19.6844 17.2539 19.8507C17.2258 19.974 17.2032 20.1036 17.1818 20.2268C17.1743 20.2693 17.1671 20.311 17.1598 20.3515L17.1596 20.3527C17.0448 21.0288 17.0106 21.7152 17.0577 22.3987C17.0665 22.768 17.1468 23.1326 17.2944 23.4738C17.4611 23.914 17.7628 24.2955 18.16 24.5677C18.5579 24.8406 19.0328 24.9909 19.5217 24.9988C20.0107 25.0068 20.4906 24.8719 20.898 24.6122C21.3047 24.3529 21.6199 23.9812 21.8019 23.5463C22.0564 22.9924 22.176 22.3899 22.1513 21.7849C22.1364 21.3432 22.1113 20.8981 22.0864 20.4552C22.0741 20.238 22.0619 20.0212 22.051 19.8058C22.0455 19.5897 21.9713 19.3805 21.8383 19.2061C21.756 19.0959 21.6464 19.0069 21.5194 18.9474Z" fill="#3A3B7B"/>
<path d="M26.0221 22.2754C26.0092 22.2911 25.9956 22.3074 25.9814 22.3243C25.8779 21.7514 25.782 21.1787 25.6859 20.6051C25.6515 20.3993 25.6169 20.1926 25.582 19.9865L25.5781 19.9635L25.5654 19.9436C25.5414 19.9063 25.539 19.8696 25.539 19.7914V19.7824L25.5376 19.7734C25.5116 19.612 25.4355 19.4618 25.3193 19.3424C25.2034 19.2233 25.0528 19.1405 24.8873 19.1045C24.722 19.0654 24.5482 19.074 24.388 19.1293C24.2281 19.1845 24.0888 19.2837 23.9874 19.4145C23.9031 19.5148 23.834 19.6261 23.7822 19.745C23.6646 20.0012 23.5461 20.258 23.4272 20.5155L23.4251 20.52C23.1283 21.1628 22.8295 21.81 22.5393 22.4623L22.5384 22.4644C22.3603 22.8874 22.2133 23.333 22.0668 23.7773C22.0375 23.866 22.0083 23.9546 21.9788 24.043C21.9259 24.1832 21.9027 24.3321 21.9107 24.481C21.9011 24.6143 21.9343 24.7472 22.006 24.8619C22.0791 24.9789 22.1886 25.0709 22.319 25.1251C22.4573 25.1832 22.6118 25.1956 22.7582 25.1602C22.9043 25.1248 23.0341 25.0439 23.127 24.9301C23.2457 24.7899 23.3479 24.6371 23.4312 24.4751C23.6769 23.9926 23.9118 23.5042 24.1457 23.0179C24.2361 22.8298 24.324 22.6613 24.4241 22.4779C24.4309 22.5005 24.4379 22.5225 24.4452 22.5447C24.55 22.9876 24.727 23.4119 24.9695 23.8019C25.0154 23.8846 25.0793 23.9568 25.1569 24.0136C25.2354 24.0711 25.326 24.1115 25.4224 24.132C25.5189 24.1525 25.6188 24.1526 25.7152 24.1323C25.8116 24.112 25.9025 24.0716 25.981 24.0143L26.1365 23.9026L27.3434 22.927L27.272 23.3635C27.1741 23.9635 27.0768 24.5585 26.9736 25.1537C26.906 25.4175 26.9061 25.693 26.9738 25.9567C27.0032 26.1052 27.078 26.2418 27.1886 26.3492C27.3002 26.4575 27.4432 26.5311 27.5989 26.5605C27.7546 26.5898 27.9159 26.5736 28.0619 26.5138C28.2058 26.4549 28.3281 26.3565 28.4136 26.231C28.6126 25.994 28.7365 25.7072 28.7705 25.4045C28.8217 24.9771 28.8796 24.5439 28.9375 24.1108C29.0042 23.6116 29.0709 23.1126 29.1272 22.6231L29.1274 22.6216C29.1816 22.0858 29.2078 21.5478 29.206 21.0095C29.2179 20.8394 29.1738 20.6699 29.0797 20.5251C28.9854 20.3797 28.8456 20.2667 28.6805 20.2021C28.5087 20.1271 28.3163 20.1071 28.1318 20.145C27.9484 20.1826 27.7825 20.2753 27.658 20.4097C27.4354 20.6073 27.2265 20.8188 27.0328 21.0427L27.0315 21.0442C26.82 21.2971 26.61 21.555 26.4013 21.8112C26.2744 21.967 26.1479 22.1224 26.0221 22.2754Z" fill="#3A3B7B"/>
</g>
<defs>
<clipPath id="clip0_211_2056">
<rect width="32.7153" height="20.186" fill="white" transform="translate(1.16028 7.2197)"/>
</clipPath>
</defs>
</svg>
