<svg width="39" height="34" viewBox="0 0 39 34" fill="none" xmlns="http://www.w3.org/2000/svg">
<g clip-path="url(#clip0_211_2080)">
<path d="M38.8873 13.9505C38.8913 13.9214 38.8913 13.8921 38.8873 13.8631C38.8911 13.8394 38.8911 13.8153 38.8873 13.7916L38.6037 11.7503C38.5628 11.5061 38.4534 11.2778 38.2877 11.091L38.2391 11.0354L38.15 10.948L33.2402 6.80185L33.3779 6.93689C33.2653 6.80472 33.1238 6.699 32.964 6.62752C32.8041 6.55604 32.63 6.52061 32.4543 6.52386H30.9635C30.7211 6.51915 30.4843 6.59471 30.2911 6.73832C30.0882 6.59557 29.844 6.5204 29.5943 6.52386H28.1035C27.908 6.52075 27.7152 6.56832 27.5444 6.66177C27.3737 6.75522 27.2312 6.89123 27.1313 7.05603C26.9774 7.29141 26.9195 7.575 26.9693 7.85032L27.1556 9.13706C27.0322 9.06846 26.8924 9.03286 26.7505 9.03382H19.5317C19.2727 9.03541 19.0196 9.10983 18.8025 9.24827C18.5925 9.37712 18.4239 9.56162 18.3164 9.78044L17.7573 9.31181C17.5373 9.11223 17.2469 9.00405 16.9471 9.00999H5.62061C5.36068 9.01463 5.10654 9.08581 4.88335 9.2165C4.578 9.39171 4.35423 9.6766 4.25948 10.0108L0.662212 21.806C0.594998 22.0004 0.588386 22.21 0.643223 22.408C0.69806 22.606 0.811861 22.7836 0.97009 22.918C1.01132 22.9523 1.05461 22.9841 1.09972 23.0133C1.09972 23.0133 1.0268 22.9656 0.986285 22.926L5.89609 27.0801C6.10379 27.2675 6.37534 27.3723 6.65763 27.3739H18.0733C18.334 27.3673 18.5884 27.2933 18.8106 27.1595C18.9363 27.0921 19.0488 27.0034 19.1428 26.8974L19.1833 26.8418L19.2481 26.7624L19.2967 26.675L19.8315 27.1277C20.0362 27.3077 20.3018 27.4068 20.5768 27.4057H32.0168C32.2772 27.3972 32.5311 27.3234 32.7541 27.1913C32.8769 27.1198 32.9888 27.0315 33.0863 26.9292L33.1267 26.8736L33.1916 26.7942C33.226 26.7439 33.2559 26.6907 33.2807 26.6352C33.3072 26.5871 33.3288 26.5366 33.3455 26.4844L36.6268 15.7138V15.6185C36.6308 15.5815 36.6308 15.5442 36.6268 15.5073V15.4358C36.6307 15.4121 36.6307 15.388 36.6268 15.3643C36.6305 15.3141 36.6305 15.2636 36.6268 15.2134H37.6801C37.7717 15.2216 37.8639 15.2216 37.9555 15.2134H38.0285C38.0877 15.196 38.1449 15.172 38.1986 15.1419H38.2796L38.4254 15.0307L38.4903 14.983L38.6037 14.84V14.7924L38.6847 14.6574C38.6802 14.6311 38.6802 14.6042 38.6847 14.578C38.6804 14.5651 38.6804 14.5511 38.6847 14.5382C38.7019 14.4917 38.7155 14.4439 38.7252 14.3953C38.7214 14.3796 38.7214 14.3633 38.7252 14.3476C38.7213 14.3239 38.7213 14.2998 38.7252 14.2761C38.7252 14.2761 38.8873 13.9663 38.8873 13.9505Z" fill="black"/>
<path d="M17.2793 9.91551C17.3224 9.95364 17.3524 10.0038 17.3654 10.0592C17.3785 10.1146 17.3739 10.1725 17.3523 10.2253L13.7631 22.0125C13.7179 22.1412 13.6255 22.2488 13.5039 22.3144C13.4049 22.3793 13.2904 22.4176 13.1716 22.4256H1.76412C1.66669 22.421 1.5744 22.3814 1.50485 22.3144C1.46348 22.2769 1.43444 22.2281 1.42145 22.1744C1.40846 22.1206 1.41212 22.0643 1.43193 22.0125L5.0292 10.2253C5.07065 10.095 5.16021 9.9845 5.28036 9.91551C5.38095 9.85527 5.49493 9.81984 5.61254 9.81225H17.0201C17.1167 9.81316 17.2094 9.85008 17.2793 9.91551ZM11.3244 19.6376L13.4714 12.6002H7.45981L5.32086 19.6376H11.3244ZM28.1684 10.0346C28.2073 10.079 28.256 10.1142 28.3107 10.1375C28.3654 10.1609 28.4247 10.1719 28.4844 10.1697H29.967C30.0235 10.1702 30.0791 10.1566 30.1288 10.1302C30.1784 10.1038 30.2203 10.0655 30.2506 10.0188C30.2769 9.98228 30.2955 9.94098 30.3053 9.89732C30.315 9.85366 30.3157 9.80852 30.3073 9.76459L30.0156 7.66767C29.9879 7.57062 29.938 7.481 29.8698 7.40555C29.8309 7.36121 29.7823 7.32604 29.7275 7.30266C29.6728 7.27929 29.6134 7.2683 29.5538 7.27052H28.0712C28.0147 7.26998 27.959 7.28356 27.9094 7.30996C27.8598 7.33637 27.8179 7.37473 27.7876 7.42144C27.7309 7.53264 27.7066 7.60412 27.7309 7.66767L28.0307 9.76459C28.046 9.8667 28.0943 9.96131 28.1684 10.0346ZM32.8756 7.65178C32.8478 7.55473 32.798 7.46511 32.7298 7.38966C32.6925 7.34548 32.6453 7.31033 32.5919 7.28691C32.5385 7.26349 32.4804 7.25245 32.4219 7.25464H30.9311C30.8756 7.25309 30.8207 7.26629 30.7722 7.29286C30.7237 7.31943 30.6835 7.35837 30.6557 7.40555C30.6018 7.47602 30.5785 7.56453 30.5909 7.65178L30.8906 9.7487C30.9094 9.84973 30.9572 9.94341 31.0284 10.0188C31.068 10.0622 31.1168 10.0968 31.1713 10.1201C31.2259 10.1434 31.2848 10.1549 31.3443 10.1538H32.8351C32.8905 10.1545 32.9451 10.1409 32.9934 10.1145C33.0418 10.088 33.0822 10.0495 33.1106 10.0029C33.1388 9.96734 33.1585 9.92606 33.1683 9.88208C33.1781 9.8381 33.1778 9.79253 33.1673 9.7487L32.8756 7.65178ZM26.864 10.8289L26.7181 9.79636H19.5317C19.4189 9.80246 19.3097 9.83812 19.2157 9.89962C19.156 9.93152 19.1041 9.97574 19.0635 10.0292C19.023 10.0827 18.9948 10.1442 18.9808 10.2094L18.3812 12.1792C18.3573 12.2284 18.3491 12.2837 18.3578 12.3376C18.3665 12.3914 18.3916 12.4414 18.4298 12.4811C18.4981 12.544 18.5873 12.5807 18.681 12.5843H27.4149L25.2679 19.6217H16.5583C16.446 19.6243 16.3366 19.6572 16.2423 19.717C16.1277 19.7884 16.0441 19.8987 16.0074 20.0268L15.3997 21.9967C15.3799 22.0472 15.3747 22.1021 15.3847 22.1554C15.3947 22.2087 15.4195 22.2582 15.4564 22.2985C15.5226 22.3657 15.6125 22.4054 15.7076 22.4097H27.1475C27.2658 22.3997 27.3799 22.3615 27.4797 22.2985C27.5993 22.2326 27.6891 22.1248 27.7309 21.9967L31.0203 11.2261H27.3177C27.2589 11.2272 27.2006 11.2165 27.1463 11.1947C27.0919 11.1728 27.0427 11.1402 27.0017 11.099C26.9347 11.027 26.8874 10.9396 26.864 10.8448V10.8289Z" fill="white"/>
</g>
<defs>
<clipPath id="clip0_211_2080">
<rect width="38.2838" height="20.8821" fill="white" transform="translate(0.606445 6.52365)"/>
</clipPath>
</defs>
</svg>
