<svg width="34" height="34" viewBox="0 0 34 34" fill="none" xmlns="http://www.w3.org/2000/svg">
<g clip-path="url(#clip0_211_2046)">
<path fill-rule="evenodd" clip-rule="evenodd" d="M9.97901 3.14993C13.8233 3.14993 16.9397 6.26634 16.9397 10.1106V3.14993H23.9004C27.7446 3.14993 30.8611 6.26634 30.8611 10.1106C30.8611 13.9549 27.7446 17.0713 23.9004 17.0713C27.7446 17.0713 30.8611 20.1878 30.8611 24.032C30.8611 25.9408 30.0927 27.6702 28.8484 28.9278L28.8224 28.954L28.7993 28.977C27.5415 30.2231 25.8108 30.9927 23.9004 30.9927C22.003 30.9927 20.2829 30.2335 19.0272 29.0023C19.0109 28.9863 18.9946 28.9701 18.9784 28.954C18.9632 28.9387 18.948 28.9234 18.9329 28.9081C17.7001 27.6522 16.9397 25.9309 16.9397 24.032C16.9397 27.8763 13.8233 30.9927 9.97901 30.9927C6.13472 30.9927 3.01831 27.8763 3.01831 24.032V17.0713H9.97901C6.13472 17.0713 3.01831 13.9549 3.01831 10.1106C3.01831 6.26634 6.13472 3.14993 9.97901 3.14993ZM15.5476 10.1106C15.5476 13.1861 13.0544 15.6792 9.97901 15.6792V4.54207C13.0544 4.54207 15.5476 7.0352 15.5476 10.1106ZM29.469 24.032C29.469 20.9566 26.9758 18.4635 23.9004 18.4635C20.825 18.4635 18.3318 20.9566 18.3318 24.032H29.469ZM4.41045 18.4635V24.032C4.41045 27.1075 6.90358 29.6006 9.97901 29.6006C13.0544 29.6006 15.5476 27.1075 15.5476 24.032V18.4635H4.41045ZM18.3318 15.6792V4.54207H23.9004C26.9758 4.54207 29.469 7.0352 29.469 10.1106C29.469 13.1861 26.9758 15.6792 23.9004 15.6792H18.3318Z" fill="#263238"/>
</g>
<defs>
<clipPath id="clip0_211_2046">
<rect width="27.8428" height="27.8428" fill="white" transform="translate(3.01831 3.14993)"/>
</clipPath>
</defs>
</svg>
