<svg width="34" height="34" viewBox="0 0 34 34" fill="none" xmlns="http://www.w3.org/2000/svg">
<g clip-path="url(#clip0_211_2072)">
<path d="M30.0804 8.50308C30.0804 8.82744 30.3466 9.09039 30.675 9.09039H31.2696C31.598 9.09039 31.8641 8.82744 31.8641 8.50308C31.8641 8.17872 31.598 7.91577 31.2696 7.91577H30.675C30.3466 7.91577 30.0804 8.17872 30.0804 8.50308Z" fill="#212326"/>
<path d="M12.8383 26.7096H15.7265L14.8857 25.8791C14.6627 25.6588 14.3602 25.535 14.0449 25.535H12.8383C8.24113 25.535 4.51444 21.8538 4.51444 17.3127C4.51444 12.7716 8.24113 9.09039 12.8383 9.09039H22.3512C26.9483 9.09039 30.675 12.7716 30.675 17.3127C30.675 21.8538 26.9483 25.535 22.3512 25.535H18.7926C18.3195 25.535 17.8659 25.3494 17.5313 25.019L16.5463 24.0459C15.9888 23.4952 15.2326 23.1858 14.4441 23.1858H12.8383C9.55459 23.1858 6.89267 20.5563 6.89267 17.3127C6.89267 14.0691 9.55459 11.4396 12.8383 11.4396H22.3512C25.6349 11.4396 28.2968 14.0691 28.2968 17.3127C28.2968 20.5563 25.6349 23.1858 22.3512 23.1858H20.0663C19.5932 23.1858 19.1395 23.0002 18.805 22.6698L17.8199 21.6967C17.2624 21.146 16.5062 20.8366 15.7178 20.8366H12.8383C10.8681 20.8366 9.27091 19.2589 9.27091 17.3127C9.27091 15.3666 10.8681 13.7889 12.8383 13.7889H22.3512C24.3214 13.7889 25.9186 15.3666 25.9186 17.3127C25.9186 19.2351 24.3601 20.798 22.4231 20.8359L22.4228 20.8366H21.5527C21.0796 20.8366 20.6259 20.6509 20.2914 20.3205L19.3063 19.3474C18.8488 18.8955 18.2577 18.6062 17.6246 18.5168L17.5947 18.4873H12.8383C12.1815 18.4873 11.6491 17.9614 11.6491 17.3127C11.6491 16.664 12.1815 16.1381 12.8383 16.1381H22.3512C23.0079 16.1381 23.5403 16.664 23.5403 17.3127C23.5403 17.9614 23.0079 18.4873 22.3512 18.4873H19.973L20.8138 19.3179C21.0368 19.5382 21.3393 19.6619 21.6546 19.6619H22.3512C23.6647 19.6619 24.7295 18.6101 24.7295 17.3127C24.7295 16.0153 23.6647 14.9635 22.3512 14.9635H12.8383C11.5248 14.9635 10.46 16.0153 10.46 17.3127C10.46 18.6101 11.5248 19.6619 12.8383 19.6619H17.2042C17.6773 19.6619 18.1309 19.8476 18.4655 20.178L19.4506 21.1511C20.0081 21.7018 20.7642 22.0112 21.5527 22.0112H22.6485V22.0022C25.1369 21.8506 27.1077 19.809 27.1077 17.3127C27.1077 14.7178 24.9781 12.6142 22.3512 12.6142H12.8383C10.2114 12.6142 8.08179 14.7178 8.08179 17.3127C8.08179 19.9076 10.2114 22.0112 12.8383 22.0112H15.7178C16.1909 22.0112 16.6445 22.1968 16.9791 22.5272L17.9642 23.5003C18.5217 24.051 19.2778 24.3604 20.0663 24.3604H22.3512C26.2916 24.3604 29.4859 21.2051 29.4859 17.3127C29.4859 13.4204 26.2916 10.265 22.3512 10.265H12.8383C8.89786 10.265 5.70355 13.4204 5.70355 17.3127C5.70355 21.2051 8.89786 24.3604 12.8383 24.3604H14.4441C14.9172 24.3604 15.3709 24.546 15.7054 24.8764L16.6905 25.8495C17.248 26.4003 18.0042 26.7096 18.7926 26.7096H22.3512C27.6051 26.7096 31.8642 22.5025 31.8642 17.3127C31.8642 12.1229 27.6051 7.91577 22.3512 7.91577L12.8383 7.91577C7.58441 7.91577 3.32532 12.1229 3.32532 17.3127C3.32532 22.5025 7.58441 26.7096 12.8383 26.7096Z" fill="#212326"/>
</g>
<defs>
<clipPath id="clip0_211_2072">
<rect width="28.5388" height="18.7939" fill="white" transform="translate(3.32532 7.91577)"/>
</clipPath>
</defs>
</svg>
